<svg viewBox="0 0 400 300" xmlns="http://www.w3.org/2000/svg" xmlns:xlink="http://www.w3.org/1999/xlink"><linearGradient id="a" gradientUnits="userSpaceOnUse" x1="135.51" x2="155.08" y1="256.49" y2="220.93"><stop offset="0" stop-color="#fff" stop-opacity="0"/><stop offset="1"/></linearGradient><linearGradient id="b" x1="58.15" x2="64.45" xlink:href="#a" y1="207.1" y2="195.65"/><path d="m205.38 282.94 152-89.83c4.84-2.72 9-7.18 4.27-10.1l-152.55-87.93c-2.29-1.42-5.76-2.35-8.09-1l-159.56 92.61c-4.84 2.81-5.71 10.66-.87 13.47l144.76 82.64a20.21 20.21 0 0 0 20.04.14z" fill="#3d44ae"/><path d="m138.15 172.12-72.49 42.35 100.2 57.2 81.35-49.21z" fill="url(#a)" opacity=".5"/><path d="m195.55 33.54a82.1 82.1 0 0 0 -82.1 82.1v59.12c0 33.84 36.76 61.27 82.1 61.27s82.1-27.43 82.1-61.27v-59.11a82.1 82.1 0 0 0 -82.1-82.11z" fill="#68e1fd"/><path d="m247.92 52.41c1.09 16 2.61 32 3.3 48 1.87 43.36-3.72 92.7-37.83 123.66a89 89 0 0 1 -16.89 11.93c44.9-.38 81.15-27.65 81.15-61.25v-59.1a81.93 81.93 0 0 0 -29.73-63.24z" fill="#606060" opacity=".46"/><path d="m237.7 41.14c-7.39-9.11-23.48-15.43-42.14-15.43s-34.76 6.29-42.15 15.43h-4.32v11.23c0 14.72 20.8 26.66 46.47 26.66s46.44-11.94 46.44-26.66v-11.23z" fill="#77431f"/><ellipse cx="195.55" cy="41.14" fill="#895630" rx="46.47" ry="26.66"/><path d="m136.11 71.6a81.23 81.23 0 0 0 -12.56 47.88c.24 4.48 7.24 4.51 7 0a74.73 74.73 0 0 1 11.61-44.34c2.41-3.82-3.64-7.34-6.05-3.54z" fill="#fff"/><path d="m127.4 126.74a3.56 3.56 0 0 0 -3.5 3.5v.38a3.5 3.5 0 0 0 7 0v-.38a3.54 3.54 0 0 0 -3.5-3.5z" fill="#fff"/><g fill="#fcd11a"><path d="m163.32 187.28 1.76 3.54.4-2.78"/><ellipse cx="184.33" cy="180.71" rx="21.78" ry="11.28" transform="matrix(.90084983 -.43413083 .43413083 .90084983 -60.18 97.96)"/><path d="m202.56 168.37 1.39 2.89h-1.39z"/></g><ellipse cx="182.94" cy="177.83" fill="#fede17" rx="21.78" ry="11.28" transform="matrix(.90084983 -.43413083 .43413083 .90084983 -59.07 97.07)"/><path d="m200 169.6c2.35 4.88-3.6 12-13 16.52s-18.77 4.83-21.12-.06 3.55-12.29 13-16.84 18.78-4.51 21.12.38z" fill="#fea500"/><path d="m183.84 175.67c1.39 1.74 1.36 3.19-1 5a7.11 7.11 0 0 1 -7.09 1.42l-1.85 1.47-1.36-.78 1.88-1.49a4.29 4.29 0 0 1 -1.67-3.49l3.69-1.32a3.4 3.4 0 0 0 .9 2.61l2.26-1.8c-1.41-1.75-1.45-3.18.89-5s4.94-2.39 7.15-1.41l1.07-.85 1.37.77-1.13.89a3.45 3.45 0 0 1 1.3 2.74l-3.61 1.4a3 3 0 0 0 -.63-1.89zm-3.49 4c.51-.41.59-.74.2-1.35l-2.08 1.64a1.73 1.73 0 0 0 1.84-.26m2.58-4.91 2-1.62a1.74 1.74 0 0 0 -1.84.24c-.49.39-.59.72-.16 1.34" fill="#fff039"/><path d="m228.92 184.27-1.69 3.56 2.43-1.39" fill="#fcd11a"/><ellipse cx="247.07" cy="196.73" fill="#fcd11a" rx="11.28" ry="21.78" transform="matrix(.43978243 -.89810435 .89810435 .43978243 -38.28 332.08)"/><path d="m268.04 203.43-1.41 2.88-.86-1.1z" fill="#fcd11a"/><ellipse cx="248.48" cy="193.85" fill="#fede17" rx="11.28" ry="21.78" transform="matrix(.43978243 -.89810435 .89810435 .43978243 -34.9 331.74)"/><path d="m265.5 202.19c-2.38 4.87-11.64 4.57-21 0s-15.39-11.77-13-16.64 11.86-4.81 21.26-.2 15.13 11.97 12.74 16.84z" fill="#fea500"/><path d="m250.73 193.22c-.51 2.17-1.66 3-4.57 2.35a7.11 7.11 0 0 1 -5.5-4.7l-2.3-.55-.23-1.55 2.34.56a4.29 4.29 0 0 1 1.71-3.47l3.32 2.08a3.4 3.4 0 0 0 -1.5 2.32l2.81.67c.5-2.19 1.61-3.11 4.52-2.42s4.93 2.41 5.53 4.75l1.33.32.24 1.55-1.4-.34a3.45 3.45 0 0 1 -1.35 2.71l-3.33-2a3 3 0 0 0 1.1-1.66zm-5.26-.3c.63.15.95 0 1.18-.68l-2.58-.62a1.73 1.73 0 0 0 1.34 1.28h.05m5.45-1 2.53.6a1.74 1.74 0 0 0 -1.33-1.3h-.05c-.61-.15-.93 0-1.15.7" fill="#fff039"/><path d="m167.65 27v-.38a5.3 5.3 0 0 1 8-4.58l49.69 29a5.3 5.3 0 0 1 2.63 4.58 5.3 5.3 0 0 1 -8 4.6l-49.66-28.61a5.3 5.3 0 0 1 -2.66-4.61z" fill="#351d0c"/><path d="m196.19 25.33a31.35 31.35 0 0 0 -11.13 2.4c-5.63 2.41 10.94 7.27 10.94 7.27" fill="#f2ae16"/><path d="m197.66 47.27c4.81 2.7 9.4 5.86 14.16 8.67a19.49 19.49 0 0 0 2.32-17.15c-3.23-10-13.21-15.65-22.31-12.7a16.86 16.86 0 0 0 -10.9 11.77c5.6 3.09 11.15 6.28 16.73 9.41z" fill="#ea8b24"/><path d="m197.66 47.27c3.64 2 7.15 4.35 10.71 6.57a19.85 19.85 0 0 0 .57-14c-3.23-10-13.21-15.65-22.31-12.7a16.47 16.47 0 0 0 -9.69 8.58c6.97 3.72 13.82 7.68 20.72 11.55z" fill="#ffd008"/><path d="m198.2 46.7c3 1.67 5.88 3.53 8.79 5.37a17.41 17.41 0 0 0 .45-12.15c-2.83-8.73-11.58-13.71-19.55-11.13a14.42 14.42 0 0 0 -8.44 7.41c6.3 3.42 12.55 6.99 18.75 10.5z" fill="none" stroke="#f7931e" stroke-miterlimit="10"/><path d="m197.66 47.27.94.55a4.32 4.32 0 0 0 -.82-2.62 5 5 0 0 0 -2.12-1.64q-1.26-.51-2.5-.9a9 9 0 0 1 -2.11-.93 1.58 1.58 0 0 1 -.85-1.42 1.67 1.67 0 0 1 .67-1.31 2.57 2.57 0 0 1 1.72-.51 3.85 3.85 0 0 1 1.71.45 5 5 0 0 1 1.08.68q.26.25.4.43l2.27-2.32-.39-.43a6 6 0 0 0 -1.36-1 7.59 7.59 0 0 0 -2.16-.84v-2.41l-3.19-.05v2.39a5.66 5.66 0 0 0 -3.38 1.7 4.64 4.64 0 0 0 -1.3 3.15 5.84 5.84 0 0 0 0 .58c3.78 2.18 7.58 4.31 11.39 6.45z" fill="#ea8b24"/><path d="m158.56 207.07 1.76 3.54.4-2.78" fill="#fcd11a"/><ellipse cx="179.57" cy="200.5" fill="#fcd11a" rx="21.78" ry="11.28" transform="matrix(.90084983 -.43413083 .43413083 .90084983 -69.25 97.86)"/><path d="m197.8 188.16 1.39 2.89h-1.39z" fill="#fcd11a"/><ellipse cx="178.18" cy="197.62" fill="#fede17" rx="21.78" ry="11.28" transform="matrix(.90084983 -.43413083 .43413083 .90084983 -68.13 96.97)"/><path d="m195.26 189.39c2.35 4.88-3.6 12-13 16.52s-18.77 4.83-21.12-.06 3.55-12.29 13-16.84 18.76-4.51 21.12.38z" fill="#fea500"/><path d="m179.08 195.46c1.39 1.74 1.36 3.19-1 5a7.11 7.11 0 0 1 -7.09 1.42l-1.85 1.47-1.36-.78 1.88-1.49a4.29 4.29 0 0 1 -1.67-3.49l3.69-1.32a3.4 3.4 0 0 0 .9 2.61l2.26-1.8c-1.41-1.75-1.45-3.18.89-5s4.94-2.39 7.15-1.41l1.07-.85 1.37.77-1.13.89a3.45 3.45 0 0 1 1.3 2.74l-3.61 1.4a3 3 0 0 0 -.63-1.89zm-3.49 4c.51-.41.59-.74.2-1.35l-2.08 1.64a1.73 1.73 0 0 0 1.84-.26m2.58-4.91 2-1.62a1.74 1.74 0 0 0 -1.84.24c-.49.39-.59.72-.16 1.34" fill="#fff039"/><path d="m139.71 146.87-1.69 3.57 2.43-1.4" fill="#fcd11a"/><ellipse cx="157.86" cy="159.33" fill="#fcd11a" rx="11.28" ry="21.78" transform="matrix(.43978243 -.89810435 .89810435 .43978243 -54.66 231.01)"/><path d="m178.83 166.03-1.41 2.88-.86-1.1z" fill="#fcd11a"/><ellipse cx="159.27" cy="156.45" fill="#fede17" rx="11.28" ry="21.78" transform="matrix(.43978243 -.89810435 .89810435 .43978243 -51.29 230.67)"/><path d="m176.29 164.79c-2.38 4.87-11.64 4.57-21 0s-15.39-11.77-13-16.64 11.86-4.81 21.26-.2 15.13 11.97 12.74 16.84z" fill="#fea500"/><path d="m161.52 155.82c-.51 2.17-1.66 3-4.57 2.35a7.11 7.11 0 0 1 -5.5-4.7l-2.3-.55-.23-1.55 2.34.56a4.29 4.29 0 0 1 1.71-3.47l3.32 2.08a3.4 3.4 0 0 0 -1.5 2.32l2.81.67c.5-2.19 1.61-3.11 4.52-2.42s4.93 2.41 5.53 4.75l1.33.32.24 1.55-1.4-.34a3.45 3.45 0 0 1 -1.35 2.71l-3.33-2a3 3 0 0 0 1.1-1.66zm-5.26-.3c.63.15.95 0 1.18-.68l-2.58-.62a1.73 1.73 0 0 0 1.34 1.28h.05m5.45-1 2.53.6a1.74 1.74 0 0 0 -1.33-1.3h-.05c-.61-.15-.93 0-1.15.7" fill="#fff039"/><path d="m274.65 162a34 34 0 0 0 -3.3-11.88c-3-5.93-7.19 12.29-7.19 12.29" fill="#f2ae16"/><ellipse cx="254.42" cy="164.79" fill="#ea8b24" rx="20.53" ry="18.74" transform="matrix(.93175461 -.36308861 .36308861 .93175461 -42.47 103.61)"/><ellipse cx="252.98" cy="159.24" fill="#ffd008" rx="20.53" ry="18.74" transform="matrix(.93175461 -.36308861 .36308861 .93175461 -40.55 102.71)"/><ellipse cx="252.98" cy="159.24" fill="none" rx="17.99" ry="16.43" stroke="#f7931e" stroke-miterlimit="10" transform="matrix(.93175461 -.36308861 .36308861 .93175461 -40.55 102.71)"/><path d="m262.79 162.82a6.45 6.45 0 0 1 -1 1.53l-.44.45-2.65-2.31q.18-.16.44-.46a5.39 5.39 0 0 0 .67-1.21 4.17 4.17 0 0 0 .37-1.88 2.79 2.79 0 0 0 -.66-1.83 1.81 1.81 0 0 0 -1.46-.65 1.71 1.71 0 0 0 -1.48 1 9.78 9.78 0 0 0 -.87 2.34q-.34 1.37-.81 2.76a5.4 5.4 0 0 1 -1.64 2.39 4.76 4.76 0 0 1 -3 1.08 5.45 5.45 0 0 1 -3.75-1.2 6.43 6.43 0 0 1 -2.16-3.68l-2.61.1-.14-3.5 2.52-.1a9.67 9.67 0 0 1 .45-2 8.92 8.92 0 0 1 .7-1.62 11.94 11.94 0 0 1 .75-1.14 6.28 6.28 0 0 1 .6-.72l.27-.23 2.51 2.33q-.2.19-.52.54a6.32 6.32 0 0 0 -.84 1.52 5.43 5.43 0 0 0 -.47 2.43 3.46 3.46 0 0 0 .77 2.25 2.16 2.16 0 0 0 1.76.75 1.73 1.73 0 0 0 1.48-1 9.39 9.39 0 0 0 .87-2.36q.33-1.38.8-2.76a5.41 5.41 0 0 1 1.64-2.38 4.76 4.76 0 0 1 3-1.08 5 5 0 0 1 3.49 1.21 6.12 6.12 0 0 1 2.05 3.55l2.58-.1.14 3.5-2.61.1a8.22 8.22 0 0 1 -.75 2.38z" fill="#ea8b24"/><path d="m184.62 189.48-1.69 3.57 2.43-1.4" fill="#fcd11a"/><ellipse cx="202.77" cy="201.94" fill="#fcd11a" rx="11.28" ry="21.78" transform="matrix(.43978243 -.89810435 .89810435 .43978243 -67.78 295.22)"/><path d="m223.74 208.64-1.41 2.88-.86-1.09z" fill="#fcd11a"/><ellipse cx="204.18" cy="199.06" fill="#fede17" rx="11.28" ry="21.78" transform="matrix(.43978243 -.89810435 .89810435 .43978243 -64.4 294.87)"/><path d="m221.21 207.4c-2.38 4.87-11.64 4.57-21 0s-15.39-11.77-13-16.64 11.86-4.81 21.26-.2 15.12 11.97 12.74 16.84z" fill="#fea500"/><path d="m206.43 198.44c-.51 2.17-1.66 3-4.57 2.35a7.11 7.11 0 0 1 -5.5-4.7l-2.3-.55-.23-1.55 2.34.56a4.29 4.29 0 0 1 1.71-3.47l3.32 2.08a3.4 3.4 0 0 0 -1.5 2.32l2.81.67c.5-2.19 1.61-3.11 4.52-2.42s4.93 2.41 5.53 4.75l1.33.32.24 1.55-1.4-.34a3.45 3.45 0 0 1 -1.35 2.71l-3.33-2a3 3 0 0 0 1.1-1.66zm-5.26-.3c.63.15.95 0 1.18-.68l-2.58-.62a1.73 1.73 0 0 0 1.34 1.28h.05m5.45-1 2.53.6a1.74 1.74 0 0 0 -1.33-1.3h-.05c-.61-.15-.93 0-1.15.7" fill="#fff039"/><path d="m130.23 199.59-1.69 3.56 2.43-1.4" fill="#fcd11a"/><ellipse cx="148.38" cy="212.04" fill="#fcd11a" rx="11.28" ry="21.78" transform="matrix(.43978243 -.89810435 .89810435 .43978243 -107.31 252.03)"/><path d="m169.35 218.75-1.41 2.87-.86-1.09z" fill="#fcd11a"/><ellipse cx="149.79" cy="209.17" fill="#fede17" rx="11.28" ry="21.78" transform="matrix(.43978243 -.89810435 .89810435 .43978243 -103.94 251.69)"/><path d="m166.82 217.5c-2.38 4.87-11.64 4.57-21 0s-15.39-11.77-13-16.64 11.86-4.81 21.26-.2 15.12 11.97 12.74 16.84z" fill="#fea500"/><path d="m152 208.54c-.51 2.17-1.66 3-4.57 2.35a7.11 7.11 0 0 1 -5.5-4.7l-2.3-.55-.23-1.55 2.34.56a4.29 4.29 0 0 1 1.71-3.47l3.32 2.08a3.4 3.4 0 0 0 -1.5 2.32l2.81.67c.5-2.19 1.61-3.11 4.52-2.42s4.93 2.41 5.53 4.75l1.33.32.24 1.55-1.4-.34a3.45 3.45 0 0 1 -1.35 2.71l-3.33-2a3 3 0 0 0 1.1-1.66zm-5.26-.3c.63.15.95 0 1.18-.68l-2.58-.62a1.73 1.73 0 0 0 1.34 1.28h.05m5.45-1 2.53.6a1.74 1.74 0 0 0 -1.33-1.3h-.05c-.61-.15-.93 0-1.15.7" fill="#fff039"/><path d="m170.85 208.02-1.69 3.56 2.43-1.39" fill="#fcd11a"/><ellipse cx="189" cy="220.48" fill="#fcd11a" rx="11.28" ry="21.78" transform="matrix(.43978243 -.89810435 .89810435 .43978243 -92.13 293.24)"/><path d="m209.97 227.18-1.41 2.88-.86-1.1z" fill="#fcd11a"/><ellipse cx="190.41" cy="217.6" fill="#fede17" rx="11.28" ry="21.78" transform="matrix(.43978243 -.89810435 .89810435 .43978243 -88.76 292.89)"/><path d="m207.43 225.94c-2.38 4.87-11.64 4.57-21 0s-15.39-11.77-13-16.64 11.86-4.81 21.26-.2 15.13 11.97 12.74 16.84z" fill="#fea500"/><path d="m192.66 217c-.51 2.17-1.66 3-4.57 2.35a7.11 7.11 0 0 1 -5.5-4.7l-2.3-.55-.23-1.55 2.34.56a4.29 4.29 0 0 1 1.71-3.47l3.32 2.08a3.4 3.4 0 0 0 -1.5 2.32l2.81.67c.5-2.19 1.61-3.11 4.52-2.42s4.93 2.41 5.53 4.75l1.33.32.24 1.55-1.4-.34a3.45 3.45 0 0 1 -1.35 2.71l-3.33-2a3 3 0 0 0 1.1-1.66zm-5.26-.3c.63.15.95 0 1.18-.68l-2.58-.62a1.73 1.73 0 0 0 1.34 1.28h.05m5.45-1 2.53.6a1.74 1.74 0 0 0 -1.33-1.3h-.04c-.61-.15-.93 0-1.15.7" fill="#fff039"/><path d="m204.89 197-1.7 3.56 2.44-1.39" fill="#fcd11a"/><ellipse cx="223.04" cy="209.46" fill="#fcd11a" rx="11.28" ry="21.78" transform="matrix(.43978243 -.89810435 .89810435 .43978243 -63.17 317.63)"/><path d="m244 216.16-1.41 2.88-.85-1.1z" fill="#fcd11a"/><ellipse cx="224.45" cy="206.58" fill="#fede17" rx="11.28" ry="21.78" transform="matrix(.43978243 -.89810435 .89810435 .43978243 -59.8 317.28)"/><path d="m241.47 214.92c-2.38 4.87-11.64 4.57-21 0s-15.39-11.77-13-16.64 11.86-4.81 21.26-.2 15.12 11.92 12.74 16.84z" fill="#fea500"/><path d="m226.7 206c-.51 2.17-1.66 3-4.57 2.35a7.11 7.11 0 0 1 -5.5-4.7l-2.3-.55-.23-1.55 2.34.56a4.29 4.29 0 0 1 1.71-3.47l3.32 2.08a3.4 3.4 0 0 0 -1.47 2.28l2.81.67c.5-2.19 1.61-3.11 4.52-2.42s4.93 2.41 5.53 4.75l1.33.32.24 1.55-1.4-.34a3.45 3.45 0 0 1 -1.35 2.71l-3.33-2a3 3 0 0 0 1.1-1.66zm-5.26-.3c.63.15.95 0 1.18-.68l-2.58-.62a1.73 1.73 0 0 0 1.34 1.28h.05m5.45-1 2.53.6a1.74 1.74 0 0 0 -1.33-1.3h-.08c-.61-.15-.93 0-1.15.7" fill="#fff039"/><path d="m219.52 167.13-1.69 3.56 2.43-1.4" fill="#fcd11a"/><ellipse cx="237.67" cy="179.58" fill="#fcd11a" rx="11.28" ry="21.78" transform="matrix(.43978243 -.89810435 .89810435 .43978243 -28.15 314.04)"/><path d="m258.64 186.28-1.41 2.88-.86-1.09z" fill="#fcd11a"/><ellipse cx="239.08" cy="176.71" fill="#fede17" rx="11.28" ry="21.78" transform="matrix(.43978243 -.89810435 .89810435 .43978243 -24.78 313.69)"/><path d="m256.1 185c-2.38 4.87-11.64 4.57-21 0s-15.39-11.77-13-16.64 11.86-4.81 21.26-.2 15.13 12.01 12.74 16.84z" fill="#fea500"/><path d="m241.33 176.08c-.51 2.17-1.66 3-4.57 2.35a7.11 7.11 0 0 1 -5.5-4.7l-2.3-.55-.23-1.55 2.34.56a4.29 4.29 0 0 1 1.71-3.47l3.32 2.08a3.4 3.4 0 0 0 -1.5 2.32l2.81.67c.5-2.19 1.61-3.11 4.52-2.42s4.93 2.41 5.53 4.75l1.33.32.21 1.56-1.4-.34a3.45 3.45 0 0 1 -1.35 2.71l-3.33-2a3 3 0 0 0 1.1-1.66zm-5.26-.3c.63.15.95 0 1.18-.68l-2.58-.62a1.73 1.73 0 0 0 1.34 1.28h.05m5.45-1 2.53.6a1.74 1.74 0 0 0 -1.33-1.3h-.05c-.61-.15-.93 0-1.15.7" fill="#fff039"/><path d="m120.12 156.11-1.7 3.56 2.44-1.39" fill="#fcd11a"/><ellipse cx="138.27" cy="168.57" fill="#fcd11a" rx="11.28" ry="21.78" transform="matrix(.43978243 -.89810435 .89810435 .43978243 -73.93 218.59)"/><path d="m159.24 175.27-1.41 2.88-.86-1.1z" fill="#fcd11a"/><ellipse cx="139.68" cy="165.69" fill="#fede17" rx="11.28" ry="21.78" transform="matrix(.43978243 -.89810435 .89810435 .43978243 -70.56 218.25)"/><path d="m156.7 174c-2.38 4.87-11.64 4.57-21 0s-15.39-11.77-13-16.64 11.86-4.81 21.26-.2 15.12 11.99 12.74 16.84z" fill="#fea500"/><path d="m141.93 165.06c-.51 2.17-1.66 3-4.57 2.35a7.11 7.11 0 0 1 -5.5-4.7l-2.3-.55-.23-1.55 2.34.56a4.29 4.29 0 0 1 1.71-3.47l3.32 2.08a3.4 3.4 0 0 0 -1.5 2.32l2.81.67c.5-2.19 1.61-3.11 4.52-2.42s4.93 2.41 5.53 4.75l1.33.32.24 1.55-1.4-.34a3.45 3.45 0 0 1 -1.35 2.71l-3.33-2a3 3 0 0 0 1.1-1.66zm-5.26-.3c.63.15.95 0 1.18-.68l-2.58-.62a1.73 1.73 0 0 0 1.34 1.28h.05m5.45-1 2.53.6a1.74 1.74 0 0 0 -1.33-1.3h-.05c-.61-.15-.93 0-1.15.7" fill="#fff039"/><path d="m134.43 161.55a34 34 0 0 0 -9 8.41c-3.89 5.37 14.22.71 14.22.71" fill="#f2ae16"/><ellipse cx="146.24" cy="178.2" fill="#ea8b24" rx="18.74" ry="20.53" transform="matrix(.65895206 -.75218494 .75218494 .65895206 -84.17 170.78)"/><ellipse cx="141.98" cy="182.05" fill="#ffd008" rx="18.74" ry="20.53" transform="matrix(.65895206 -.75218494 .75218494 .65895206 -88.51 168.89)"/><ellipse cx="141.98" cy="182.05" fill="none" rx="16.43" ry="17.99" stroke="#f7931e" stroke-miterlimit="10" transform="matrix(.65895206 -.75218494 .75218494 .65895206 -88.51 168.89)"/><path d="m140.63 171.69a6.45 6.45 0 0 1 1.82.16l.6.18-.83 3.42q-.23-.08-.61-.18a5.39 5.39 0 0 0 -1.39 0 4.17 4.17 0 0 0 -1.84.54 2.79 2.79 0 0 0 -1.32 1.43 1.81 1.81 0 0 0 .1 1.59 1.71 1.71 0 0 0 1.58.84 9.78 9.78 0 0 0 2.48-.31q1.37-.33 2.82-.56a5.4 5.4 0 0 1 2.88.35 4.76 4.76 0 0 1 2.35 2.18 5.45 5.45 0 0 1 .67 3.88 6.43 6.43 0 0 1 -2.26 3.62l1.29 2.27-3 1.74-1.25-2.19a9.67 9.67 0 0 1 -2 .54 8.92 8.92 0 0 1 -1.76.12 11.94 11.94 0 0 1 -1.36-.14 6.28 6.28 0 0 1 -.92-.2l-.33-.13.91-3.3.72.22a6.32 6.32 0 0 0 1.74 0 5.43 5.43 0 0 0 2.38-.71 3.46 3.46 0 0 0 1.64-1.72 2.16 2.16 0 0 0 -.15-1.91 1.73 1.73 0 0 0 -1.58-.85 9.39 9.39 0 0 0 -2.49.31q-1.38.34-2.82.56a5.41 5.41 0 0 1 -2.87-.36 4.76 4.76 0 0 1 -2.35-2.18 5 5 0 0 1 -.54-3.65 6.12 6.12 0 0 1 2.2-3.46l-1.28-2.24 3-1.74 1.29 2.27a8.22 8.22 0 0 1 2.48-.39z" fill="#ea8b24"/><path d="m207.47 153.2a34 34 0 0 0 -12 2.87c-6 2.75 12 7.63 12 7.63" fill="#f2ae16"/><ellipse cx="209.53" cy="173.51" fill="#ea8b24" rx="18.74" ry="20.53" transform="matrix(.94420405 -.32936108 .32936108 .94420405 -45.46 78.69)"/><ellipse cx="203.92" cy="174.75" fill="#ffd008" rx="18.74" ry="20.53" transform="matrix(.94420405 -.32936108 .32936108 .94420405 -46.18 76.91)"/><ellipse cx="203.92" cy="174.75" fill="none" rx="16.43" ry="17.99" stroke="#f7931e" stroke-miterlimit="10" transform="matrix(.94420405 -.32936108 .32936108 .94420405 -46.18 76.91)"/><path d="m207.86 165.08a6.45 6.45 0 0 1 1.5 1l.43.46-2.41 2.56q-.16-.18-.44-.45a5.39 5.39 0 0 0 -1.19-.71 4.17 4.17 0 0 0 -1.86-.44 2.79 2.79 0 0 0 -1.85.6 1.81 1.81 0 0 0 -.7 1.43 1.71 1.71 0 0 0 1 1.51 9.78 9.78 0 0 0 2.31 1q1.36.39 2.73.91a5.4 5.4 0 0 1 2.33 1.72 4.76 4.76 0 0 1 1 3.05 5.45 5.45 0 0 1 -1.33 3.7 6.43 6.43 0 0 1 -3.75 2v2.61h-3.5v-2.52a9.67 9.67 0 0 1 -2-.52 8.92 8.92 0 0 1 -1.6-.76 11.94 11.94 0 0 1 -1.12-.79 6.28 6.28 0 0 1 -.7-.63l-.22-.27 2.42-2.42q.18.21.52.54a6.32 6.32 0 0 0 1.49.89 5.43 5.43 0 0 0 2.42.56 3.46 3.46 0 0 0 2.27-.69 2.16 2.16 0 0 0 .81-1.73 1.73 1.73 0 0 0 -1-1.52 9.39 9.39 0 0 0 -2.32-1q-1.37-.38-2.73-.9a5.41 5.41 0 0 1 -2.32-1.72 4.76 4.76 0 0 1 -1-3.05 5 5 0 0 1 1.33-3.44 6.12 6.12 0 0 1 3.62-1.93v-2.58h3.5v2.61a8.22 8.22 0 0 1 2.36.92z" fill="#ea8b24"/><path d="m175.69 100.78-1.7 3.57 2.44-1.4" fill="#fcd11a"/><ellipse cx="193.83" cy="113.24" fill="#fcd11a" rx="11.28" ry="21.78" transform="matrix(.43978243 -.89810435 .89810435 .43978243 6.88 237.51)"/><path d="m214.8 119.94-1.41 2.88-.86-1.09z" fill="#fcd11a"/><ellipse cx="195.24" cy="110.36" fill="#fede17" rx="11.28" ry="21.78" transform="matrix(.43978243 -.89810435 .89810435 .43978243 10.25 237.16)"/><path d="m212.27 118.7c-2.38 4.87-11.64 4.57-21 0s-15.39-11.77-13-16.64 11.86-4.81 21.26-.2 15.12 11.97 12.74 16.84z" fill="#fea500"/><path d="m197.49 109.74c-.51 2.17-1.66 3-4.57 2.35a7.11 7.11 0 0 1 -5.5-4.7l-2.3-.55-.23-1.55 2.34.56a4.29 4.29 0 0 1 1.71-3.47l3.32 2.08a3.4 3.4 0 0 0 -1.5 2.32l2.81.67c.5-2.19 1.61-3.11 4.52-2.42s4.93 2.41 5.53 4.75l1.33.32.24 1.55-1.4-.34a3.45 3.45 0 0 1 -1.35 2.71l-3.33-2a3 3 0 0 0 1.1-1.66zm-5.26-.3c.63.15.95 0 1.18-.68l-2.58-.62a1.73 1.73 0 0 0 1.34 1.28h.05m5.45-1 2.53.6a1.74 1.74 0 0 0 -1.33-1.3h-.05c-.61-.15-.93 0-1.15.7" fill="#fff039"/><path d="m58 179.35-19.11 11.15a32.41 32.41 0 0 0 -1 4.24l27.52 15.87 27.52-15.11z" fill="url(#b)" opacity=".5"/><ellipse cx="76.46" cy="188.85" fill="#fcd11a" rx="19.59" ry="11.48"/><path d="m56.87 188.85v-3.31l2.13 2.65z" fill="#fcd11a"/><path d="m96.04 185.54v3.31h-2.48l1.82-2.66z" fill="#fcd11a"/><ellipse cx="76.46" cy="185.68" fill="#fede17" rx="19.59" ry="11.48"/><ellipse cx="76.49" cy="185.68" fill="#fea500" rx="16.44" ry="9.63"/><path d="m86.08 182.35a1.53 1.53 0 0 1 .16.87l-.08.3h-3.57a1.62 1.62 0 0 0 .07-.3 1.34 1.34 0 0 0 -.21-.65 2 2 0 0 0 -.86-.79 3.91 3.91 0 0 0 -1.68-.44 3.62 3.62 0 0 0 -1.6.25q-.75.32-.58.84a3.1 3.1 0 0 0 .76 1.12 13.62 13.62 0 0 1 1.08 1.25 1.3 1.3 0 0 1 .19 1.38 3.08 3.08 0 0 1 -1.76 1.37 10.29 10.29 0 0 1 -3.79.79 12.12 12.12 0 0 1 -4.14-.59l-2.06.88-2.41-1.17 2-.86a4.51 4.51 0 0 1 -1-.86 2.55 2.55 0 0 1 -.47-.8 2.62 2.62 0 0 1 -.12-.65 1.4 1.4 0 0 1 0-.45l.07-.17h3.58a2.85 2.85 0 0 0 -.09.36 1.52 1.52 0 0 0 .29.81 2.68 2.68 0 0 0 1.18 1 5.08 5.08 0 0 0 2.08.54 4.33 4.33 0 0 0 1.91-.31q.74-.32.56-.84a3.09 3.09 0 0 0 -.79-1.12 11.45 11.45 0 0 1 -1.09-1.24 1.28 1.28 0 0 1 -.15-1.39 3.33 3.33 0 0 1 1.82-1.38 9.84 9.84 0 0 1 3.64-.71 10.5 10.5 0 0 1 3.98.61l2.05-.88 2.24 1.22-2.06.88a2.93 2.93 0 0 1 .85 1.13z" fill="#fff039"/><ellipse cx="76.46" cy="182.59" fill="#fcd11a" rx="19.59" ry="11.48"/><path d="m56.87 182.59v-3.32l2.13 2.65z" fill="#fcd11a"/><path d="m96.04 179.27v3.32h-2.48l1.82-2.66z" fill="#fcd11a"/><ellipse cx="76.46" cy="179.41" fill="#fede17" rx="19.59" ry="11.48"/><ellipse cx="76.49" cy="179.41" fill="#fea500" rx="16.44" ry="9.63"/><path d="m86.08 176.08a1.53 1.53 0 0 1 .16.87l-.08.3h-3.57a1.62 1.62 0 0 0 .07-.3 1.34 1.34 0 0 0 -.21-.65 2 2 0 0 0 -.86-.79 3.91 3.91 0 0 0 -1.68-.44 3.62 3.62 0 0 0 -1.6.25q-.75.32-.58.84a3.1 3.1 0 0 0 .76 1.12 13.62 13.62 0 0 1 1.08 1.25 1.3 1.3 0 0 1 .19 1.38 3.08 3.08 0 0 1 -1.76 1.37 10.29 10.29 0 0 1 -3.79.79 12.12 12.12 0 0 1 -4.14-.59l-2.06.88-2.41-1.17 2-.86a4.51 4.51 0 0 1 -1-.86 2.55 2.55 0 0 1 -.47-.8 2.62 2.62 0 0 1 -.12-.65 1.4 1.4 0 0 1 0-.45l.07-.17h3.58a2.85 2.85 0 0 0 -.09.36 1.52 1.52 0 0 0 .29.81 2.68 2.68 0 0 0 1.18 1 5.08 5.08 0 0 0 2.08.54 4.33 4.33 0 0 0 1.91-.31q.74-.32.56-.84a3.09 3.09 0 0 0 -.79-1.12 11.45 11.45 0 0 1 -1.09-1.24 1.28 1.28 0 0 1 -.15-1.39 3.33 3.33 0 0 1 1.82-1.38 9.84 9.84 0 0 1 3.64-.71 10.5 10.5 0 0 1 3.88.6l2.05-.88 2.24 1.22-2.06.88a2.93 2.93 0 0 1 .95 1.14z" fill="#fff039"/><ellipse cx="76.46" cy="175.79" fill="#fcd11a" rx="19.59" ry="11.48"/><path d="m56.87 175.79v-3.31l2.13 2.65z" fill="#fcd11a"/><path d="m96.04 172.48v3.31h-2.48l1.82-2.66z" fill="#fcd11a"/><ellipse cx="76.46" cy="172.62" fill="#fede17" rx="19.59" ry="11.48"/><ellipse cx="76.49" cy="172.62" fill="#fea500" rx="16.44" ry="9.63"/><path d="m86.08 169.28a1.53 1.53 0 0 1 .16.87l-.08.3h-3.57a1.62 1.62 0 0 0 .07-.3 1.34 1.34 0 0 0 -.21-.65 2 2 0 0 0 -.86-.79 3.91 3.91 0 0 0 -1.68-.44 3.62 3.62 0 0 0 -1.6.25q-.75.32-.58.84a3.1 3.1 0 0 0 .76 1.12 13.62 13.62 0 0 1 1.08 1.25 1.3 1.3 0 0 1 .19 1.38 3.08 3.08 0 0 1 -1.76 1.37 10.29 10.29 0 0 1 -3.79.79 12.12 12.12 0 0 1 -4.14-.59l-2.06.88-2.41-1.17 2-.86a4.51 4.51 0 0 1 -1-.86 2.55 2.55 0 0 1 -.47-.8 2.62 2.62 0 0 1 -.12-.65 1.4 1.4 0 0 1 0-.45l.07-.17h3.58a2.85 2.85 0 0 0 -.09.36 1.52 1.52 0 0 0 .29.81 2.68 2.68 0 0 0 1.18 1 5.08 5.08 0 0 0 2.08.54 4.33 4.33 0 0 0 1.91-.31q.74-.32.56-.84a3.09 3.09 0 0 0 -.79-1.12 11.45 11.45 0 0 1 -1.09-1.24 1.28 1.28 0 0 1 -.15-1.39 3.33 3.33 0 0 1 1.82-1.38 9.84 9.84 0 0 1 3.64-.71 10.5 10.5 0 0 1 3.88.6l2.05-.88 2.24 1.22-2.06.88a2.93 2.93 0 0 1 .95 1.14z" fill="#fff039"/><ellipse cx="76.46" cy="169.6" fill="#fcd11a" rx="19.59" ry="11.48"/><path d="m56.87 169.6v-3.31l2.13 2.65z" fill="#fcd11a"/><path d="m96.04 166.29v3.31h-2.48l1.82-2.66z" fill="#fcd11a"/><ellipse cx="76.46" cy="166.43" fill="#fede17" rx="19.59" ry="11.48"/><ellipse cx="76.49" cy="166.43" fill="#fea500" rx="16.44" ry="9.63"/><path d="m86.08 163.1a1.53 1.53 0 0 1 .16.87l-.08.3h-3.57a1.62 1.62 0 0 0 .07-.3 1.34 1.34 0 0 0 -.21-.65 2 2 0 0 0 -.86-.79 3.91 3.91 0 0 0 -1.68-.44 3.62 3.62 0 0 0 -1.6.25q-.75.32-.58.84a3.1 3.1 0 0 0 .76 1.12 13.62 13.62 0 0 1 1.08 1.25 1.3 1.3 0 0 1 .19 1.38 3.08 3.08 0 0 1 -1.76 1.37 10.29 10.29 0 0 1 -3.79.79 12.12 12.12 0 0 1 -4.14-.59l-2.06.88-2.41-1.17 2-.86a4.51 4.51 0 0 1 -1-.86 2.55 2.55 0 0 1 -.47-.8 2.62 2.62 0 0 1 -.12-.65 1.4 1.4 0 0 1 0-.45l.07-.17h3.58a2.85 2.85 0 0 0 -.09.36 1.52 1.52 0 0 0 .29.81 2.68 2.68 0 0 0 1.18 1 5.08 5.08 0 0 0 2.08.54 4.33 4.33 0 0 0 1.91-.31q.74-.32.56-.84a3.09 3.09 0 0 0 -.79-1.12 11.45 11.45 0 0 1 -1.09-1.24 1.28 1.28 0 0 1 -.15-1.39 3.33 3.33 0 0 1 1.82-1.38 9.84 9.84 0 0 1 3.64-.71 10.5 10.5 0 0 1 3.88.6l2.05-.88 2.24 1.22-2.06.88a2.93 2.93 0 0 1 .95 1.14z" fill="#fff039"/><ellipse cx="65.62" cy="159.72" fill="#fcd11a" rx="19.59" ry="11.48"/><path d="m46.04 159.72v-3.32l2.13 2.65z" fill="#fcd11a"/><path d="m85.21 156.4v3.32h-2.48l1.82-2.66z" fill="#fcd11a"/><ellipse cx="65.62" cy="156.54" fill="#fede17" rx="19.59" ry="11.48"/><ellipse cx="65.66" cy="156.54" fill="#fea500" rx="16.44" ry="9.63"/><path d="m75.25 153.21a1.53 1.53 0 0 1 .16.87l-.08.3h-3.57a1.62 1.62 0 0 0 .07-.3 1.34 1.34 0 0 0 -.21-.65 2 2 0 0 0 -.86-.79 3.91 3.91 0 0 0 -1.68-.44 3.62 3.62 0 0 0 -1.6.25q-.75.32-.58.84a3.1 3.1 0 0 0 .76 1.12 13.62 13.62 0 0 1 1.08 1.25 1.3 1.3 0 0 1 .19 1.38 3.08 3.08 0 0 1 -1.74 1.35 10.29 10.29 0 0 1 -3.79.79 12.12 12.12 0 0 1 -4.14-.59l-2.06.88-2.41-1.17 2-.86a4.51 4.51 0 0 1 -1-.86 2.55 2.55 0 0 1 -.47-.8 2.62 2.62 0 0 1 -.12-.65 1.4 1.4 0 0 1 0-.45l.07-.17h3.58a2.85 2.85 0 0 0 -.09.36 1.52 1.52 0 0 0 .29.81 2.68 2.68 0 0 0 1.18 1 5.08 5.08 0 0 0 2.08.54 4.33 4.33 0 0 0 1.91-.31q.74-.32.56-.84a3.09 3.09 0 0 0 -.79-1.12 11.45 11.45 0 0 1 -.99-1.2 1.28 1.28 0 0 1 -.15-1.39 3.33 3.33 0 0 1 1.8-1.36 9.84 9.84 0 0 1 3.64-.71 10.5 10.5 0 0 1 3.88.6l2.05-.88 2.24 1.22-2.06.88a2.93 2.93 0 0 1 .85 1.1z" fill="#fff039"/></svg>